<svg width="14" height="14" viewBox="0 0 14 14" fill="none" xmlns="http://www.w3.org/2000/svg">
<g clip-path="url(#clip0_13683_4791)">
<path d="M10.3134 0.0745243L8.60446 0.0717773C6.68452 0.0717773 5.44377 1.34704 5.44377 3.32085V4.81889H3.7255C3.57702 4.81889 3.45679 4.93948 3.45679 5.08823V7.25872C3.45679 7.40746 3.57716 7.52791 3.7255 7.52791H5.44377V13.0047C5.44377 13.1535 5.56401 13.2739 5.71249 13.2739H7.95434C8.10282 13.2739 8.22305 13.1534 8.22305 13.0047V7.52791H10.2321C10.3806 7.52791 10.5008 7.40746 10.5008 7.25872L10.5016 5.08823C10.5016 5.01681 10.4733 4.94841 10.423 4.89786C10.3726 4.84732 10.3041 4.81889 10.2328 4.81889H8.22305V3.54898C8.22305 2.93861 8.36824 2.62876 9.16191 2.62876L10.3131 2.62835C10.4615 2.62835 10.5817 2.50776 10.5817 2.35915V0.343724C10.5817 0.195252 10.4616 0.074799 10.3134 0.0745243Z" fill="#8F8E94"/>
</g>
<defs>
<clipPath id="clip0_13683_4791">
<rect width="13.1786" height="13.2022" fill="white" transform="translate(0.429932 0.0717773)"/>
</clipPath>
</defs>
</svg>
