<svg width="14" height="14" viewBox="0 0 14 14" fill="none" xmlns="http://www.w3.org/2000/svg">
<g clip-path="url(#clip0_13683_4777)">
<path d="M9.5461 0.0717773H4.60414C2.33001 0.0717773 0.48584 1.88396 0.48584 4.11864V8.97486C0.48584 11.2095 2.33001 13.0217 4.60414 13.0217H9.5461C11.8202 13.0217 13.6644 11.2095 13.6644 8.97486V4.11864C13.6644 1.88396 11.8202 0.0717773 9.5461 0.0717773ZM12.4289 8.97486C12.4289 10.537 11.1358 11.8077 9.5461 11.8077H4.60414C3.01447 11.8077 1.72133 10.537 1.72133 8.97486V4.11864C1.72133 2.55655 3.01447 1.28583 4.60414 1.28583H9.5461C11.1358 1.28583 12.4289 2.55655 12.4289 4.11864V8.97486Z" fill="#8F8E94"/>
<path d="M7.07491 3.30908C5.25545 3.30908 3.78027 4.75867 3.78027 6.54657C3.78027 8.33447 5.25545 9.78406 7.07491 9.78406C8.89438 9.78406 10.3696 8.33447 10.3696 6.54657C10.3696 4.75867 8.89438 3.30908 7.07491 3.30908ZM7.07491 8.57C5.93991 8.57 5.01576 7.66188 5.01576 6.54657C5.01576 5.43045 5.93991 4.52314 7.07491 4.52314C8.20991 4.52314 9.13406 5.43045 9.13406 6.54657C9.13406 7.66188 8.20991 8.57 7.07491 8.57Z" fill="#8F8E94"/>
<path d="M10.6167 3.49804C10.8592 3.49804 11.0558 3.3049 11.0558 3.06665C11.0558 2.8284 10.8592 2.63525 10.6167 2.63525C10.3743 2.63525 10.1777 2.8284 10.1777 3.06665C10.1777 3.3049 10.3743 3.49804 10.6167 3.49804Z" fill="#8F8E94"/>
</g>
<defs>
<clipPath id="clip0_13683_4777">
<rect width="13.1786" height="12.9499" fill="white" transform="translate(0.48584 0.0717773)"/>
</clipPath>
</defs>
</svg>
