<svg width="30" height="30 " viewBox="0 0 30 30" fill="none" xmlns="http://www.w3.org/2000/svg">
<path d="M24.0619 7.06214C23.5383 6.52161 22.9166 6.09282 22.2324 5.80027C21.5481 5.50772 20.8147 5.35715 20.0741 5.35715C19.3334 5.35715 18.6 5.50772 17.9158 5.80027C17.2316 6.09282 16.6099 6.52161 16.0863 7.06214L14.9997 8.18342L13.913 7.06214C12.8554 5.97082 11.4209 5.35771 9.92522 5.35771C8.42952 5.35771 6.99507 5.97082 5.93744 7.06214C4.87981 8.15347 4.28564 9.63363 4.28564 11.177C4.28564 12.7204 4.87981 14.2005 5.93744 15.2919L7.02408 16.4131L14.9997 24.6429L22.9752 16.4131L24.0619 15.2919C24.5857 14.7516 25.0013 14.1101 25.2848 13.4041C25.5683 12.698 25.7142 11.9413 25.7142 11.177C25.7142 10.4128 25.5683 9.65599 25.2848 8.94995C25.0013 8.24391 24.5857 7.60242 24.0619 7.06214V7.06214Z" stroke="#202020" stroke-width="2.2" stroke-linecap="round" stroke-linejoin="round"/>
</svg>
