<svg width="14" height="13" viewBox="0 0 14 13" fill="none" xmlns="http://www.w3.org/2000/svg">
<g clip-path="url(#clip0_13683_4788)">
<path d="M13.1357 3.48707C12.9943 2.97069 12.58 2.56363 12.0546 2.42458C11.0947 2.1665 7.2551 2.1665 7.2551 2.1665C7.2551 2.1665 3.41565 2.1665 2.45577 2.4148C1.94045 2.5537 1.51603 2.97076 1.37467 3.48707C1.12207 4.43023 1.12207 6.38621 1.12207 6.38621C1.12207 6.38621 1.12207 8.35205 1.37467 9.28535C1.51617 9.80166 1.93034 10.2087 2.45584 10.3478C3.42576 10.6059 7.25525 10.6059 7.25525 10.6059C7.25525 10.6059 11.0947 10.6059 12.0546 10.3576C12.5801 10.2186 12.9943 9.81159 13.1358 9.29528C13.3883 8.35205 13.3883 6.39614 13.3883 6.39614C13.3883 6.39614 13.3985 4.43023 13.1357 3.48707ZM6.03265 8.19321V4.5792L9.22547 6.38621L6.03265 8.19321Z" fill="#8F8E94"/>
</g>
<defs>
<clipPath id="clip0_13683_4788">
<rect width="13.0841" height="12.8571" fill="white" transform="translate(0.719727 0.0712891)"/>
</clipPath>
</defs>
</svg>
